# File created by Blade
# Date/Time:  Tue Jan 27 19:14:14 2015
#---------------------------------------------------------
:version 1.10
:name HOM
:units
  mass 1.0
  length 1.000000
  angle deg
:documentation
     Acclaim Skeleton File
:root
   axis xyz
   order TX TY TZ RX RY RZ
   position 0.000000 0.000000 0.000000
   orientation 0 0 0
:bonedata
   begin
      id 1
      name Spine_dum
      direction 0.000000 1.000000 0.000000
      length 6.116652
      axis 0.0 0.0 0.0 xyz
   end
   begin
      id 2
      name LeftUpLeg_dum
      direction 1.000000 0.000000 0.000000
      length 4.711765
      axis 0.0 0.0 0.0 xyz
   end
   begin
      id 3
      name RightUpLeg_dum
      direction -1.000000 0.000000 0.000000
      length 4.711765
      axis 0.0 0.0 0.0 xyz
   end
   begin
      id 4
      name Spine
      direction 0.000000 1.000000 0.000000
      length 0.000000
      axis 0.0 0.0 0.0 xyz
      dof rx ry rz
   end
   begin
      id 5
      name Spine_dum1
      direction 0.000000 1.000000 0.000000
      length 15.225563
      axis 0.0 0.0 0.0 xyz
   end
   begin
      id 6
      name Spine_dum2
      direction 0.000000 1.000000 0.000000
      length 8.977654
      axis 0.0 0.0 0.0 xyz
   end
   begin
      id 7
      name Spine_dum3
      direction 0.000000 1.000000 0.000000
      length 8.977654
      axis 0.0 0.0 0.0 xyz
   end
   begin
      id 8
      name Head
      direction 0.000000 1.000000 0.000000
      length 4.527550
      axis 0.0 0.0 0.0 xyz
      dof rx ry rz
   end
   begin
      id 9
      name LeftShoulder
      direction 1.000000 0.000000 0.000000
      length 7.110130
      axis 0.0 0.0 -90.0 xyz
      dof rx ry rz
   end
   begin
      id 10
      name LeftArm
      direction 1.000000 0.000000 0.000000
      length 10.398341
      axis 0.0 0.0 -90.0 xyz
      dof rx ry rz
   end
   begin
      id 11
      name LeftForeArm
      direction 1.000000 0.000000 0.000000
      length 8.888997
      axis 0.0 0.0 -90.0 xyz
      dof ry rz rx
   end
   begin
      id 12
      name LeftHand
      direction 0.000000 0.000000 0.000000
      length 0.000000
      axis 0.0 0.0 -90.0 xyz
      dof rx ry rz
   end
   begin
      id 13
      name LeftHand_dum1
      direction 0.000000 0.000000 0.000000
      length 0.000000
      axis 0.0 0.0 -90.0 xyz
   end
   begin
      id 14
      name LeftHand_dum2
      direction 1.000000 0.000000 0.000000
      length 3.937000
      axis 0.0 0.0 -90.0 xyz
   end
   begin
      id 15
      name LeftHandThumb1
      direction 0.000000 0.000000 1.000000
      length 3.937000
      axis 0.0 0.0 -90.0 xyz
      dof rx rz ry
   end
   begin
      id 16
      name RightShoulder
      direction -1.000000 0.000000 0.000000
      length 7.110130
      axis 0.0 0.0 90.0 xyz
      dof rx ry rz
   end
   begin
      id 17
      name RightArm
      direction -1.000000 0.000000 0.000000
      length 10.398341
      axis 0.0 0.0 90.0 xyz
      dof rx ry rz
   end
   begin
      id 18
      name RightForeArm
      direction -1.000000 0.000000 0.000000
      length 8.888997
      axis 0.0 0.0 90.0 xyz
      dof ry rz rx
   end
   begin
      id 19
      name RightHand
      direction 0.000000 0.000000 0.000000
      length 0.000000
      axis 0.0 0.0 90.0 xyz
      dof rx ry rz
   end
   begin
      id 20
      name RightHand_dum1
      direction 0.000000 0.000000 0.000000
      length 0.000000
      axis 0.0 0.0 90.0 xyz
   end
   begin
      id 21
      name RightHand_dum2
      direction -1.000000 0.000000 0.000000
      length 3.937000
      axis 0.0 0.0 90.0 xyz
   end
   begin
      id 22
      name RightHandThumb1
      direction 0.000000 0.000000 1.000000
      length 3.937000
      axis 0.0 0.0 90.0 xyz
      dof rx rz ry
   end
   begin
      id 23
      name LeftUpLeg
      direction 0.000000 -1.000000 0.000000
      length 15.510451
      axis 0.0 0.0 0.0 xyz
      dof rx ry rz
   end
   begin
      id 24
      name LeftLeg
      direction 0.000000 -1.000000 0.000000
      length 14.858061
      axis 0.0 0.0 0.0 xyz
      dof rx ry rz
   end
   begin
      id 25
      name LeftFoot
      direction 0.000000 -0.258819 0.965926
      length 5.128852
      axis 15.0 0.0 0.0 xyz
      dof rx ry rz
   end
   begin
      id 26
      name LeftToeBase
      direction 0.000000 0.000000 1.000000
      length 2.952750
      axis 0.0 0.0 0.0 xyz
      dof rx ry rz
   end
   begin
      id 27
      name RightUpLeg
      direction 0.000000 -1.000000 0.000000
      length 15.510451
      axis 0.0 0.0 0.0 xyz
      dof rx ry rz
   end
   begin
      id 28
      name RightLeg
      direction 0.000000 -1.000000 0.000000
      length 14.858061
      axis 0.0 0.0 0.0 xyz
      dof rx ry rz
   end
   begin
      id 29
      name RightFoot
      direction 0.000000 -0.258819 0.965926
      length 5.128852
      axis 15.0 0.0 0.0 xyz
      dof rx ry rz
   end
   begin
      id 30
      name RightToeBase
      direction 0.000000 0.000000 1.000000
      length 2.952750
      axis 0.0 0.0 0.0 xyz
      dof rx ry rz
   end
:hierarchy
   begin
      root Spine_dum LeftUpLeg_dum RightUpLeg_dum
      Spine_dum Spine
      LeftUpLeg_dum LeftUpLeg
      RightUpLeg_dum RightUpLeg
      Spine Spine_dum1 Spine_dum2 Spine_dum3
      Spine_dum1 Head
      Spine_dum2 LeftShoulder
      Spine_dum3 RightShoulder
      LeftShoulder LeftArm
      LeftArm LeftForeArm
      LeftForeArm LeftHand
      LeftHand LeftHand_dum1 LeftHand_dum2
      LeftHand_dum1 LeftHandThumb1
      RightShoulder RightArm
      RightArm RightForeArm
      RightForeArm RightHand
      RightHand RightHand_dum1 RightHand_dum2
      RightHand_dum1 RightHandThumb1
      LeftUpLeg LeftLeg
      LeftLeg LeftFoot
      LeftFoot LeftToeBase
      RightUpLeg RightLeg
      RightLeg RightFoot
      RightFoot RightToeBase
   end

# File created by Blade
# Date/Time:  Tue Jan 27 19:14:06 2015
# Frame Rate: 120.000 fps
#------------------------------------------------------
:FULLY-SPECIFIED
:DEGREES
986
root 4.716865 32.407952 1.147084 -2.768360 23.725518 3.426087
Spine -3.741066 19.970568 -3.138127
Head 15.203986 -23.509974 -14.879238
LeftShoulder -5.811965 -10.392691 21.070794
LeftArm -6.112964 38.962469 -103.819573
LeftForeArm 5.781380 0.000000 8.660010
LeftHand 10.247726 -0.000000 -8.671326
LeftHandThumb1 -26.253704 0.000000 33.147579
RightShoulder -7.054601 25.664157 -52.209915
RightArm 102.742069 41.393443 151.359330
RightForeArm 48.613642 -0.000000 130.636835
RightHand 33.391947 -0.000000 -11.056714
RightHandThumb1 -24.326973 -0.000000 -32.862282
LeftUpLeg 7.763063 -14.209448 -4.090372
LeftLeg 2.327419 -0.000000 -0.000000
LeftFoot -10.610122 3.513893 -20.436501
LeftToeBase 19.720867 -0.000000 -0.000000
RightUpLeg 14.808896 -9.535823 0.378642
RightLeg -3.818804 -0.000000 0.000000
RightFoot -17.400406 -24.260850 19.759711
RightToeBase 11.551082 -0.000000 -0.000000
987
root 4.721063 32.406952 1.142180 -2.779718 23.721342 3.435755
Spine -3.714553 19.981188 -3.055453
Head 15.210211 -23.405042 -14.905118
LeftShoulder -5.863747 -10.383481 21.089669
LeftArm -6.162645 38.689199 -103.829922
LeftForeArm 5.821703 -0.000000 8.705301
LeftHand 10.196036 0.000000 -8.737287
LeftHandThumb1 -26.253704 0.000000 33.147579
RightShoulder -7.027174 25.733682 -52.198506
RightArm 102.699020 41.296938 151.629530
RightForeArm 48.644595 -0.000000 130.877181
RightHand 33.440571 -0.000000 -10.780493
RightHandThumb1 -24.326973 -0.000000 -32.862282
LeftUpLeg 7.782160 -14.188461 -4.106675
LeftLeg 2.297425 -0.000000 -0.000000
LeftFoot -10.558608 3.518583 -20.357838
LeftToeBase 19.612384 -0.000000 -0.000000
RightUpLeg 14.820764 -9.562354 0.353210
RightLeg -3.825097 -0.000000 0.000000
RightFoot -17.382255 -24.258455 19.720596
RightToeBase 11.520497 -0.000000 -0.000000
988
root 4.721208 32.407036 1.137943 -2.786607 23.705691 3.416971
Spine -3.710823 20.047598 -2.974981
Head 15.216199 -23.361928 -14.889092
LeftShoulder -5.865896 -10.370790 21.097263
LeftArm -6.176156 38.573359 -103.844685
LeftForeArm 5.647810 -0.000000 8.691340
LeftHand 10.183021 0.000000 -8.708017
LeftHandThumb1 -26.253704 0.000000 33.147579
RightShoulder -7.001308 25.763383 -52.174325
RightArm 102.716312 41.238761 151.868026
RightForeArm 48.707132 -0.000000 131.014084
RightHand 33.448015 -0.000000 -10.802490
RightHandThumb1 -24.326973 -0.000000 -32.862282
LeftUpLeg 7.782248 -14.176157 -4.091096
LeftLeg 2.284362 -0.000000 -0.000000
LeftFoot -10.574495 3.524589 -20.372065
LeftToeBase 19.667449 -0.000000 -0.000000
RightUpLeg 14.817181 -9.519867 0.365984
RightLeg -3.829178 -0.000000 0.000000
RightFoot -17.399384 -24.217964 19.797961
RightToeBase 11.545129 -0.000000 -0.000000
989
root 4.723248 32.406939 1.133067 -2.781039 23.691286 3.420064
Spine -3.712092 20.123167 -2.922545
Head 15.214328 -23.369859 -14.846327
LeftShoulder -5.851814 -10.367169 21.111144
LeftArm -6.187733 38.401831 -103.842800
LeftForeArm 5.692667 0.000000 8.698368
LeftHand 10.301822 -0.000000 -8.891092
LeftHandThumb1 -26.253704 0.000000 33.147579
RightShoulder -6.970112 25.817570 -52.154280
RightArm 102.685400 41.209615 151.987508
RightForeArm 48.826466 0.000000 131.111787
RightHand 33.562985 -0.000000 -11.211533
RightHandThumb1 -24.326973 -0.000000 -32.862282
LeftUpLeg 7.783301 -14.198427 -4.104645
LeftLeg 2.276288 -0.000000 -0.000000
LeftFoot -10.591261 3.551180 -20.377596
LeftToeBase 19.725513 -0.000000 -0.000000
RightUpLeg 14.808361 -9.557672 0.345169
RightLeg -3.836671 -0.000000 0.000000
RightFoot -17.372413 -24.154770 19.789618
RightToeBase 11.514759 -0.000000 -0.000000
990
root 4.723696 32.407494 1.127546 -2.772868 23.672478 3.423430
Spine -3.711811 20.204709 -2.874729
Head 15.198820 -23.361580 -14.809018
LeftShoulder -5.858579 -10.351812 21.110553
LeftArm -6.179786 38.267944 -103.830401
LeftForeArm 5.587227 0.000000 8.713128
LeftHand 10.294192 -0.000000 -8.882489
LeftHandThumb1 -26.253704 0.000000 33.147579
RightShoulder -6.929119 25.888221 -52.141370
RightArm 102.671805 41.246310 152.107766
RightForeArm 48.758675 -0.000000 131.147531
RightHand 33.542609 -0.000000 -11.691699
RightHandThumb1 -24.326973 -0.000000 -32.862282
LeftUpLeg 7.772484 -14.194633 -4.108821
LeftLeg 2.270280 -0.000000 -0.000000
LeftFoot -10.599145 3.555982 -20.421529
LeftToeBase 19.805042 -0.000000 -0.000000
RightUpLeg 14.797378 -9.552296 0.336508
RightLeg -3.849185 -0.000000 0.000000
RightFoot -17.358750 -24.150128 19.779784
RightToeBase 11.531327 -0.000000 -0.000000
991
root 4.723884 32.408243 1.121496 -2.756932 23.657981 3.423140
Spine -3.718493 20.300252 -2.836964
Head 15.171402 -23.426423 -14.748976
LeftShoulder -5.846039 -10.347182 21.105967
LeftArm -6.168786 38.173762 -103.817708
LeftForeArm 5.464871 -0.000000 8.721746
LeftHand 10.188161 -0.000000 -8.880173
LeftHandThumb1 -26.253704 0.000000 33.147579
RightShoulder -6.900396 25.915506 -52.108063
RightArm 102.692486 41.253037 152.179827
RightForeArm 48.787601 -0.000000 131.105025
RightHand 33.509811 0.000000 -11.742455
RightHandThumb1 -24.326973 -0.000000 -32.862282
LeftUpLeg 7.743456 -14.200057 -4.110802
LeftLeg 2.280696 -0.000000 -0.000000
LeftFoot -10.605937 3.601090 -20.359297
LeftToeBase 19.822965 -0.000000 -0.000000
RightUpLeg 14.772071 -9.544999 0.334622
RightLeg -3.853652 -0.000000 0.000000
RightFoot -17.340129 -24.141078 19.773628
RightToeBase 11.528589 -0.000000 -0.000000
992
root 4.723561 32.409198 1.115567 -2.738413 23.649766 3.416530
Spine -3.725178 20.396912 -2.791399
Head 15.114672 -23.486891 -14.698369
LeftShoulder -5.828148 -10.371167 21.083483
LeftArm -6.191264 38.056804 -103.810743
LeftForeArm 5.415570 -0.000000 8.745475
LeftHand 10.127337 0.000000 -8.830990
LeftHandThumb1 -26.253704 0.000000 33.147579
RightShoulder -6.883790 25.937037 -52.096470
RightArm 102.693980 41.268131 152.190421
RightForeArm 48.756129 -0.000000 131.004875
RightHand 33.471150 0.000000 -12.116478
RightHandThumb1 -24.326973 -0.000000 -32.862282
LeftUpLeg 7.710263 -14.211821 -4.103976
LeftLeg 2.292899 -0.000000 -0.000000
LeftFoot -10.572491 3.585086 -20.519961
LeftToeBase 19.579923 -0.000000 -0.000000
RightUpLeg 14.747255 -9.575732 0.330558
RightLeg -3.868794 -0.000000 0.000000
RightFoot -17.294542 -24.093743 19.765095
RightToeBase 11.515050 -0.000000 -0.000000
993
root 4.722764 32.410087 1.108895 -2.718443 23.641496 3.413247
Spine -3.719713 20.480442 -2.750070
Head 15.018323 -23.535314 -14.640917
LeftShoulder -5.843165 -10.363454 21.059962
LeftArm -6.156683 37.962191 -103.777204
LeftForeArm 5.357383 -0.000000 8.742365
LeftHand 10.270323 0.000000 -8.806942
LeftHandThumb1 -26.253704 0.000000 33.147579
RightShoulder -6.880147 25.935167 -52.103933
RightArm 102.687978 41.287168 152.175897
RightForeArm 48.755696 0.000000 130.838427
RightHand 33.538041 -0.000000 -12.051443
RightHandThumb1 -24.326973 -0.000000 -32.862282
LeftUpLeg 7.674967 -14.222336 -4.097902
LeftLeg 2.278250 -0.000000 -0.000000
LeftFoot -10.571034 3.643287 -20.375856
LeftToeBase 19.703849 -0.000000 -0.000000
RightUpLeg 14.718231 -9.547617 0.335936
RightLeg -3.875100 -0.000000 0.000000
RightFoot -17.298291 -24.098000 19.773907
RightToeBase 11.580123 -0.000000 -0.000000
994
root 4.721829 32.411343 1.102067 -2.699759 23.640712 3.408289
Spine -3.709436 20.554486 -2.705515
Head 14.905955 -23.586667 -14.598503
LeftShoulder -5.859772 -10.364737 21.019257
LeftArm -6.124890 37.917540 -103.738477
LeftForeArm 5.330737 -0.000000 8.738829
LeftHand 10.213517 -0.000000 -8.869413
LeftHandThumb1 -26.253704 0.000000 33.147579
RightShoulder -6.898514 25.947986 -52.133081
RightArm 102.622178 41.302987 152.109872
RightForeArm 48.765777 -0.000000 130.659013
RightHand 33.548911 -0.000000 -11.898322
RightHandThumb1 -24.326973 -0.000000 -32.862282
LeftUpLeg 7.633919 -14.217989 -4.088820
LeftLeg 2.289756 -0.000000 -0.000000
LeftFoot -10.552825 3.651036 -20.351560
LeftToeBase 19.690193 -0.000000 -0.000000
RightUpLeg 14.688924 -9.553550 0.340680
RightLeg -3.885891 -0.000000 0.000000
RightFoot -17.251088 -24.103295 19.737792
RightToeBase 11.551152 -0.000000 -0.000000
